<svg width="72" height="76" viewBox="0 0 72 76" fill="none" xmlns="http://www.w3.org/2000/svg">
<g clip-path="url(#clip0_73_3)">
<g clip-path="url(#clip1_73_3)">
<path d="M27.1616 -0.0199656L15.6436 6.63L17.6385 10.0854L29.1566 3.43544L27.1616 -0.0199656Z" fill="#FFA600" fill-opacity="0.5"/>
<path d="M38.0623 2.90092L34.6069 4.8959L36.6019 8.35131L40.0573 6.35633L38.0623 2.90092Z" fill="#FFA600" fill-opacity="0.5"/>
<path d="M43.513 4.36137L40.0576 6.35635L44.0476 13.2673L47.503 11.2723L43.513 4.36137Z" fill="#FFA600" fill-opacity="0.5"/>
<path d="M47.5031 11.2722L51.493 18.183L41.1267 24.168L43.1217 27.6234L53.488 21.6384L66.123 43.5229L20.0505 70.1229L7.41544 48.2384L29.3 35.6034L27.305 32.148L5.42046 44.783L3.42548 41.3276L-0.0299224 43.3226L18.59 75.5733L71.5734 44.9834L50.9585 9.27722L47.5031 11.2722Z" fill="#FFA600" fill-opacity="0.5"/>
<path d="M37.6712 26.1631L34.2158 28.1581L36.2108 31.6135L39.6662 29.6185L37.6712 26.1631Z" fill="#FFA600" fill-opacity="0.5"/>
<path d="M6.03794 35.2122L1.43066 37.8722L3.42564 41.3276L8.03292 38.6676L6.03794 35.2122Z" fill="#FFA600" fill-opacity="0.5"/>
<path d="M8.64976 29.0967L4.04248 31.7567L6.03746 35.2121L10.6447 32.5521L8.64976 29.0967Z" fill="#FFA600" fill-opacity="0.5"/>
<path d="M11.2621 22.9813L6.65479 25.6413L8.64976 29.0967L13.257 26.4367L11.2621 22.9813Z" fill="#FFA600" fill-opacity="0.5"/>
<path d="M13.8744 16.8658L9.26709 19.5258L11.2621 22.9813L15.8693 20.3212L13.8744 16.8658Z" fill="#FFA600" fill-opacity="0.5"/>
<path d="M17.6384 10.0854L11.8794 13.4104L13.8744 16.8658L19.6334 13.5408L17.6384 10.0854Z" fill="#FFA600" fill-opacity="0.5"/>
<path d="M25.0838 15.0013L20.4766 17.6613L22.4715 21.1167L27.0788 18.4567L25.0838 15.0013Z" fill="#FFA600" fill-opacity="0.5"/>
<path d="M22.4715 21.1167L19.0161 23.1117L21.6761 27.719L25.1315 25.724L22.4715 21.1167Z" fill="#FFA600" fill-opacity="0.5"/>
<path d="M29.7391 23.064L25.1318 25.724L27.1268 29.1794L31.7341 26.5194L29.7391 23.064Z" fill="#FFA600" fill-opacity="0.5"/>
<path d="M30.5345 16.4617L27.0791 18.4567L29.7391 23.064L33.1945 21.069L30.5345 16.4617Z" fill="#FFA600" fill-opacity="0.5"/>
<path d="M22.0804 44.379L17.4731 47.039L19.4681 50.4944L24.0754 47.8344L22.0804 44.379Z" fill="#FFA600" fill-opacity="0.5"/>
<path d="M27.5306 45.8394L24.0752 47.8344L26.7352 52.4416L30.1906 50.4466L27.5306 45.8394Z" fill="#FFA600" fill-opacity="0.5"/>
<path d="M26.7352 52.4416L22.1279 55.1016L24.1229 58.557L28.7302 55.897L26.7352 52.4416Z" fill="#FFA600" fill-opacity="0.5"/>
<path d="M19.4681 50.4944L16.0127 52.4893L18.6727 57.0966L22.1281 55.1016L19.4681 50.4944Z" fill="#FFA600" fill-opacity="0.5"/>
<path d="M44.3211 37.6812L40.8657 39.6761L44.8557 46.5871L48.3111 44.5921L44.3211 37.6812Z" fill="#FFA600" fill-opacity="0.5"/>
<path d="M49.2371 30.2357L42.3262 34.2257L44.3212 37.6811L51.2321 33.6911L49.2371 30.2357Z" fill="#FFA600" fill-opacity="0.5"/>
<path d="M54.6873 31.6962L51.2319 33.6911L55.222 40.602L58.6774 38.6071L54.6873 31.6962Z" fill="#FFA600" fill-opacity="0.5"/>
<path d="M55.2219 40.6021L48.311 44.5921L50.306 48.0475L57.2169 44.0575L55.2219 40.6021Z" fill="#FFA600" fill-opacity="0.5"/>
<path d="M32.6121 1.44042L29.1567 3.43539L31.1517 6.8908L34.6071 4.89582L32.6121 1.44042Z" fill="#FFA600" fill-opacity="0.5"/>
</g>
</g>
<defs>
<clipPath id="clip0_73_3">
<rect width="72" height="76" fill="white"/>
</clipPath>
<clipPath id="clip1_73_3">
<rect width="61.1799" height="61.1799" fill="white" transform="translate(-12 22.59) rotate(-30)"/>
</clipPath>
</defs>
</svg>
